# xmcd
#
# Track frame offsets: 
#        150
#        4197
#        62707
#        83732
#        121932
#        149187
#        178320
#        236765
#        248232
#
# Disc length: 4336 seconds
#
# Revision: 2
# Processed by: cddbd v1.5.2PL0 Copyright (c) Steve Scherf et al.
# Submitted via: ExactAudioCopy v0.99pb5
#
DISCID=8010ee09
DTITLE=String Cheese Incident - OTR 04-19-2002 Birmingham, AL [CD1]
DYEAR=2002
DGENRE=Jam Band
TTITLE0=Intro
TTITLE1=Miss Brown's Teahouse
TTITLE2=Can't Stop Now
TTITLE3=Suntan
TTITLE4=Ten Miles to Tulsa
TTITLE5=Parker's Blues
TTITLE6=Sweet Melinda
TTITLE7=Ham Jam
TTITLE8=Howard
EXTD=
EXTT0=
EXTT1=
EXTT2=
EXTT3=
EXTT4=
EXTT5=
EXTT6=
EXTT7=
EXTT8=
PLAYORDER=
